{
  "accessors": [
    {
      "bufferView": 2,
      "componentType": 5126,
      "count": 985,
      "max": [
        2.4688775539398193,
        -0.37901100516319275,
        2.4688780307769775
      ],
      "min": [
        -2.4688775539398193,
        -0.7668726444244385,
        -2.4688775539398193
      ],
      "type": "VEC3"
    },
    {
      "bufferView": 2,
      "byteOffset": 11820,
      "componentType": 5126,
      "count": 985,
      "max": [
        0.9999918937683105,
        1.0,
        0.9999921321868896
      ],
      "min": [
        -0.9999921321868896,
        -0.004059104714542627,
        -0.9999918937683105
      ],
      "type": "VEC3"
    },
    {
      "bufferView": 1,
      "componentType": 5126,
      "count": 985,
      "max": [
        0.8041434288024902,
        0.766809344291687
      ],
      "min": [
        0.009315133094787598,
        0.009315133094787598
      ],
      "type": "VEC2"
    },
    {
      "bufferView": 0,
      "componentType": 5125,
      "count": 4314,
      "type": "SCALAR"
    },
    {
      "bufferView": 2,
      "byteOffset": 23640,
      "componentType": 5126,
      "count": 1620,
      "max": [
        2.467303991317749,
        -0.37901100516319275,
        2.4673290252685547
      ],
      "min": [
        -2.4673376083374023,
        -0.8025409579277039,
        -2.4673120975494385
      ],
      "type": "VEC3"
    },
    {
      "bufferView": 2,
      "byteOffset": 43080,
      "componentType": 5126,
      "count": 1620,
      "max": [
        0.7916469573974609,
        1.0,
        0.07191208004951477
      ],
      "min": [
        -0.5893933176994324,
        -1.0,
        -0.8493893146514893
      ],
      "type": "VEC3"
    },
    {
      "bufferView": 1,
      "byteOffset": 7880,
      "componentType": 5126,
      "count": 1620,
      "max": [
        0.9899756908416748,
        0.9905322790145874
      ],
      "min": [
        0.010776758193969727,
        0.01133015751838684
      ],
      "type": "VEC2"
    },
    {
      "bufferView": 0,
      "byteOffset": 17256,
      "componentType": 5125,
      "count": 3009,
      "type": "SCALAR"
    },
    {
      "bufferView": 2,
      "byteOffset": 62520,
      "componentType": 5126,
      "count": 2380,
      "max": [
        1.8585299253463745,
        -0.7586613893508911,
        1.868491291999817
      ],
      "min": [
        -1.871912956237793,
        -0.8108975887298584,
        -1.867227554321289
      ],
      "type": "VEC3"
    },
    {
      "bufferView": 2,
      "byteOffset": 91080,
      "componentType": 5126,
      "count": 2380,
      "max": [
        1.0,
        1.0,
        1.0
      ],
      "min": [
        -1.0,
        -1.0,
        -1.0
      ],
      "type": "VEC3"
    },
    {
      "bufferView": 1,
      "byteOffset": 20840,
      "componentType": 5126,
      "count": 2380,
      "max": [
        0.9323711395263672,
        0.9417557716369629
      ],
      "min": [
        0.009315133094787598,
        0.009315133094787598
      ],
      "type": "VEC2"
    },
    {
      "bufferView": 0,
      "byteOffset": 29292,
      "componentType": 5125,
      "count": 5298,
      "type": "SCALAR"
    },
    {
      "bufferView": 2,
      "byteOffset": 119640,
      "componentType": 5126,
      "count": 65532,
      "max": [
        2.4432058334350586,
        -0.7610465884208679,
        2.4656336307525635
      ],
      "min": [
        -2.4432058334350586,
        -0.8481685519218445,
        -2.440746307373047
      ],
      "type": "VEC3"
    },
    {
      "bufferView": 2,
      "byteOffset": 906024,
      "componentType": 5126,
      "count": 65532,
      "max": [
        0.9989931583404541,
        0.9995265007019043,
        1.0
      ],
      "min": [
        -0.9989931583404541,
        -0.9995266795158386,
        -1.0
      ],
      "type": "VEC3"
    },
    {
      "bufferView": 1,
      "byteOffset": 39880,
      "componentType": 5126,
      "count": 65532,
      "max": [
        0.9906848073005676,
        0.990587592124939
      ],
      "min": [
        0.009315133094787598,
        0.009315133094787598
      ],
      "type": "VEC2"
    },
    {
      "bufferView": 0,
      "byteOffset": 50484,
      "componentType": 5125,
      "count": 98676,
      "type": "SCALAR"
    },
    {
      "bufferView": 2,
      "byteOffset": 1692408,
      "componentType": 5126,
      "count": 27108,
      "max": [
        2.3564586639404297,
        -0.8119685053825378,
        2.095475673675537
      ],
      "min": [
        -2.2955424785614014,
        -0.8487706780433655,
        -2.3507609367370605
      ],
      "type": "VEC3"
    },
    {
      "bufferView": 2,
      "byteOffset": 2017704,
      "componentType": 5126,
      "count": 27108,
      "max": [
        0.9967380166053772,
        0.9969184994697571,
        0.9970178604125977
      ],
      "min": [
        -0.9971475005149841,
        -0.9969192743301392,
        -0.9973793625831604
      ],
      "type": "VEC3"
    },
    {
      "bufferView": 1,
      "byteOffset": 564136,
      "componentType": 5126,
      "count": 27108,
      "max": [
        0.990495502948761,
        0.9906013011932373
      ],
      "min": [
        0.03035798668861389,
        0.009315133094787598
      ],
      "type": "VEC2"
    },
    {
      "bufferView": 0,
      "byteOffset": 445188,
      "componentType": 5125,
      "count": 40662,
      "type": "SCALAR"
    }
  ],
  "asset": {
    "extras": {
      "author": "shadowdoggie (https://sketchfab.com/shadowdoggie)",
      "license": "CC-BY-ND-4.0 (http://creativecommons.org/licenses/by-nd/4.0/)",
      "source": "https://sketchfab.com/3d-models/winmau-blade-5-dart-board-d2c6e78bf0a944c8870bf6db91a4ba22",
      "title": "Winmau Blade 5 Dart Board"
    },
    "generator": "Sketchfab-12.68.0",
    "version": "2.0"
  },
  "bufferViews": [
    {
      "buffer": 0,
      "byteLength": 607836,
      "name": "floatBufferViews",
      "target": 34963
    },
    {
      "buffer": 0,
      "byteLength": 781000,
      "byteOffset": 607836,
      "byteStride": 8,
      "name": "floatBufferViews",
      "target": 34962
    },
    {
      "buffer": 0,
      "byteLength": 2343000,
      "byteOffset": 1388836,
      "byteStride": 12,
      "name": "floatBufferViews",
      "target": 34962
    }
  ],
  "buffers": [
    {
      "byteLength": 3731836,
      "uri": "scene.bin"
    }
  ],
  "images": [
    {
      "uri": "textures/DartBoard_baseColor.png"
    }
  ],
  "materials": [
    {
      "doubleSided": true,
      "name": "Black",
      "pbrMetallicRoughness": {
        "baseColorFactor": [
          0.0,
          0.0,
          0.0,
          1.0
        ],
        "metallicFactor": 0.0
      }
    },
    {
      "doubleSided": true,
      "name": "DartBoard",
      "pbrMetallicRoughness": {
        "baseColorTexture": {
          "index": 0
        },
        "metallicFactor": 0.0,
        "roughnessFactor": 0.8211145618000169
      }
    },
    {
      "doubleSided": true,
      "name": "Silver",
      "pbrMetallicRoughness": {
        "baseColorFactor": [
          0.288297,
          0.288297,
          0.288297,
          1.0
        ],
        "metallicFactor": 0.0,
        "roughnessFactor": 0.9176370007065706
      }
    },
    {
      "doubleSided": true,
      "name": "White",
      "pbrMetallicRoughness": {
        "baseColorFactor": [
          0.8,
          0.8,
          0.8,
          1.0
        ],
        "metallicFactor": 0.0,
        "roughnessFactor": 0.8211145618000169
      }
    }
  ],
  "meshes": [
    {
      "name": "DartBoard_Black_0",
      "primitives": [
        {
          "attributes": {
            "NORMAL": 1,
            "POSITION": 0,
            "TEXCOORD_0": 2
          },
          "indices": 3,
          "material": 0,
          "mode": 4
        }
      ]
    },
    {
      "name": "DartBoard_DartBoard_0",
      "primitives": [
        {
          "attributes": {
            "NORMAL": 5,
            "POSITION": 4,
            "TEXCOORD_0": 6
          },
          "indices": 7,
          "material": 1,
          "mode": 4
        }
      ]
    },
    {
      "name": "DartBoard_Silver_0",
      "primitives": [
        {
          "attributes": {
            "NORMAL": 9,
            "POSITION": 8,
            "TEXCOORD_0": 10
          },
          "indices": 11,
          "material": 2,
          "mode": 4
        }
      ]
    },
    {
      "name": "DartBoard_White_0",
      "primitives": [
        {
          "attributes": {
            "NORMAL": 13,
            "POSITION": 12,
            "TEXCOORD_0": 14
          },
          "indices": 15,
          "material": 3,
          "mode": 4
        }
      ]
    },
    {
      "name": "DartBoard_White_0",
      "primitives": [
        {
          "attributes": {
            "NORMAL": 17,
            "POSITION": 16,
            "TEXCOORD_0": 18
          },
          "indices": 19,
          "material": 3,
          "mode": 4
        }
      ]
    }
  ],
  "nodes": [
    {
      "children": [
        1
      ],
      "matrix": [
        1.0,
        0.0,
        0.0,
        0.0,
        0.0,
        2.220446049250313e-16,
        -1.0,
        0.0,
        0.0,
        1.0,
        2.220446049250313e-16,
        0.0,
        0.0,
        0.0,
        0.0,
        1.0
      ],
      "name": "Sketchfab_model"
    },
    {
      "children": [
        2
      ],
      "matrix": [
        1.0,
        0.0,
        0.0,
        0.0,
        0.0,
        0.0,
        1.0,
        0.0,
        0.0,
        -1.0,
        0.0,
        0.0,
        0.0,
        0.0,
        0.0,
        1.0
      ],
      "name": "74f5f0efc09b4c1881b3a4e37d4c9d5d.fbx"
    },
    {
      "children": [
        3
      ],
      "name": "RootNode"
    },
    {
      "children": [
        4,
        5,
        6,
        7,
        8
      ],
      "matrix": [
        100.0,
        0.0,
        0.0,
        0.0,
        0.0,
        -1.629206793918314e-05,
        -99.99999999999868,
        0.0,
        0.0,
        99.99999999999868,
        -1.629206793918314e-05,
        0.0,
        0.0,
        0.0,
        0.0,
        1.0
      ],
      "name": "DartBoard"
    },
    {
      "mesh": 0,
      "name": "DartBoard_Black_0"
    },
    {
      "mesh": 1,
      "name": "DartBoard_DartBoard_0"
    },
    {
      "mesh": 2,
      "name": "DartBoard_Silver_0"
    },
    {
      "mesh": 3,
      "name": "DartBoard_White_0"
    },
    {
      "mesh": 4,
      "name": "DartBoard_White_0"
    }
  ],
  "samplers": [
    {
      "magFilter": 9729,
      "minFilter": 9987,
      "wrapS": 10497,
      "wrapT": 10497
    }
  ],
  "scene": 0,
  "scenes": [
    {
      "name": "Sketchfab_Scene",
      "nodes": [
        0
      ]
    }
  ],
  "textures": [
    {
      "sampler": 0,
      "source": 0
    }
  ]
}
